<mxfile host="Electron" modified="2024-07-06T18:50:49.693Z" agent="Mozilla/5.0 (Windows NT 10.0; Win64; x64) AppleWebKit/537.36 (KHTML, like Gecko) draw.io/21.1.2 Chrome/106.0.5249.199 Electron/21.4.3 Safari/537.36" etag="--xtqPyzEyUojakstgVo" version="21.1.2" type="device">
  <diagram name="Page-1" id="W0r8VTpRrAbCd9TFT7GV">
    <mxGraphModel dx="4369" dy="1431" grid="0" gridSize="10" guides="1" tooltips="1" connect="1" arrows="1" fold="1" page="0" pageScale="1" pageWidth="850" pageHeight="1100" math="0" shadow="0">
      <root>
        <mxCell id="0" />
        <mxCell id="1" parent="0" />
        <mxCell id="xtK6tUM-NP-llqa6Qkgk-7" value="GameActions.inputactions" style="swimlane;fontStyle=1;align=center;verticalAlign=top;childLayout=stackLayout;horizontal=1;startSize=26;horizontalStack=0;resizeParent=1;resizeParentMax=0;resizeLast=0;collapsible=1;marginBottom=0;whiteSpace=wrap;html=1;fillColor=#dae8fc;strokeColor=#6c8ebf;" parent="1" vertex="1">
          <mxGeometry x="-667" y="734.5" width="245" height="78" as="geometry" />
        </mxCell>
        <mxCell id="xtK6tUM-NP-llqa6Qkgk-9" value="Setup via UI (Input Actions Plugin)" style="text;strokeColor=#d6b656;fillColor=#fff2cc;align=left;verticalAlign=top;spacingLeft=4;spacingRight=4;overflow=hidden;rotatable=0;points=[[0,0.5],[1,0.5]];portConstraint=eastwest;whiteSpace=wrap;html=1;" parent="xtK6tUM-NP-llqa6Qkgk-7" vertex="1">
          <mxGeometry y="26" width="245" height="26" as="geometry" />
        </mxCell>
        <mxCell id="xtK6tUM-NP-llqa6Qkgk-21" value="Generate&amp;nbsp;GameActions.cs (Script)" style="text;strokeColor=#d6b656;fillColor=#fff2cc;align=left;verticalAlign=top;spacingLeft=4;spacingRight=4;overflow=hidden;rotatable=0;points=[[0,0.5],[1,0.5]];portConstraint=eastwest;whiteSpace=wrap;html=1;" parent="xtK6tUM-NP-llqa6Qkgk-7" vertex="1">
          <mxGeometry y="52" width="245" height="26" as="geometry" />
        </mxCell>
        <mxCell id="xtK6tUM-NP-llqa6Qkgk-10" value="Player" style="swimlane;fontStyle=1;align=center;verticalAlign=top;childLayout=stackLayout;horizontal=1;startSize=26;horizontalStack=0;resizeParent=1;resizeParentMax=0;resizeLast=0;collapsible=1;marginBottom=0;whiteSpace=wrap;html=1;fillColor=#dae8fc;strokeColor=#6c8ebf;" parent="1" vertex="1">
          <mxGeometry x="-50" y="705" width="245" height="253" as="geometry" />
        </mxCell>
        <mxCell id="xtK6tUM-NP-llqa6Qkgk-11" value="&lt;b&gt;GatherInput &lt;/b&gt;(Script)&lt;br&gt;&lt;div&gt;&amp;nbsp; &amp;nbsp; public float valueX;&lt;/div&gt;&lt;div&gt;&amp;nbsp; &amp;nbsp; public float valueY;&lt;/div&gt;&lt;div&gt;&amp;nbsp; &amp;nbsp; public bool tryToAttack;&lt;/div&gt;&lt;div&gt;&amp;nbsp; &amp;nbsp; public bool tryToJump;&lt;/div&gt;" style="text;strokeColor=#d6b656;fillColor=#fff2cc;align=left;verticalAlign=top;spacingLeft=4;spacingRight=4;overflow=hidden;rotatable=0;points=[[0,0.5],[1,0.5]];portConstraint=eastwest;whiteSpace=wrap;html=1;" parent="xtK6tUM-NP-llqa6Qkgk-10" vertex="1">
          <mxGeometry y="26" width="245" height="85" as="geometry" />
        </mxCell>
        <mxCell id="xtK6tUM-NP-llqa6Qkgk-16" value="use" style="edgeStyle=orthogonalEdgeStyle;shape=connector;curved=1;rounded=0;orthogonalLoop=1;jettySize=auto;html=1;exitX=1;exitY=0.5;exitDx=0;exitDy=0;labelBackgroundColor=default;strokeColor=default;fontFamily=Helvetica;fontSize=11;fontColor=default;endArrow=classic;" parent="xtK6tUM-NP-llqa6Qkgk-10" source="xtK6tUM-NP-llqa6Qkgk-14" target="xtK6tUM-NP-llqa6Qkgk-11" edge="1">
          <mxGeometry relative="1" as="geometry">
            <Array as="points">
              <mxPoint x="296" y="167" />
              <mxPoint x="296" y="69" />
            </Array>
          </mxGeometry>
        </mxCell>
        <mxCell id="xtK6tUM-NP-llqa6Qkgk-14" value="&lt;b&gt;PlayerControls &lt;/b&gt;(Script)&lt;br&gt;&lt;div&gt;&amp;nbsp; &amp;nbsp; private void FixedUpdate()&lt;/div&gt;&lt;div&gt;&amp;nbsp; &amp;nbsp; {&lt;/div&gt;&lt;div&gt;&amp;nbsp; &amp;nbsp; &amp;nbsp; &amp;nbsp; GroundCheck();&lt;/div&gt;&lt;div&gt;&amp;nbsp; &amp;nbsp; &amp;nbsp; &amp;nbsp; Move();&lt;/div&gt;&lt;div&gt;&amp;nbsp; &amp;nbsp; &amp;nbsp; &amp;nbsp; Jump();&lt;/div&gt;&lt;div&gt;&amp;nbsp; &amp;nbsp; }&lt;/div&gt;&lt;div&gt;&lt;br&gt;&lt;/div&gt;" style="text;strokeColor=#d6b656;fillColor=#fff2cc;align=left;verticalAlign=top;spacingLeft=4;spacingRight=4;overflow=hidden;rotatable=0;points=[[0,0.5],[1,0.5]];portConstraint=eastwest;whiteSpace=wrap;html=1;" parent="xtK6tUM-NP-llqa6Qkgk-10" vertex="1">
          <mxGeometry y="111" width="245" height="112" as="geometry" />
        </mxCell>
        <mxCell id="xtK6tUM-NP-llqa6Qkgk-18" value="use" style="edgeStyle=orthogonalEdgeStyle;shape=connector;curved=1;rounded=0;orthogonalLoop=1;jettySize=auto;html=1;exitX=1;exitY=0.5;exitDx=0;exitDy=0;labelBackgroundColor=default;strokeColor=default;fontFamily=Helvetica;fontSize=11;fontColor=default;endArrow=classic;" parent="xtK6tUM-NP-llqa6Qkgk-10" source="xtK6tUM-NP-llqa6Qkgk-17" target="xtK6tUM-NP-llqa6Qkgk-11" edge="1">
          <mxGeometry relative="1" as="geometry">
            <Array as="points">
              <mxPoint x="326" y="238" />
              <mxPoint x="326" y="52" />
            </Array>
          </mxGeometry>
        </mxCell>
        <mxCell id="xtK6tUM-NP-llqa6Qkgk-17" value="&lt;b&gt;AttackControls&amp;nbsp;&lt;/b&gt;(Script)&lt;div&gt;&lt;br&gt;&lt;/div&gt;" style="text;strokeColor=#d6b656;fillColor=#fff2cc;align=left;verticalAlign=top;spacingLeft=4;spacingRight=4;overflow=hidden;rotatable=0;points=[[0,0.5],[1,0.5]];portConstraint=eastwest;whiteSpace=wrap;html=1;" parent="xtK6tUM-NP-llqa6Qkgk-10" vertex="1">
          <mxGeometry y="223" width="245" height="30" as="geometry" />
        </mxCell>
        <mxCell id="xtK6tUM-NP-llqa6Qkgk-12" value="use&lt;br&gt;controls.PlayerNormal.MoveHorizontal.ReadValue&amp;lt;float&amp;gt;()" style="edgeStyle=orthogonalEdgeStyle;rounded=0;orthogonalLoop=1;jettySize=auto;html=1;curved=1;" parent="1" source="xtK6tUM-NP-llqa6Qkgk-11" target="xtK6tUM-NP-llqa6Qkgk-7" edge="1">
          <mxGeometry x="0.0094" y="-17" relative="1" as="geometry">
            <mxPoint as="offset" />
          </mxGeometry>
        </mxCell>
        <mxCell id="dwQCpobOTHlW38qF8Rt8-6" style="rounded=0;orthogonalLoop=1;jettySize=auto;html=1;" edge="1" parent="1" source="dwQCpobOTHlW38qF8Rt8-49" target="dwQCpobOTHlW38qF8Rt8-4">
          <mxGeometry relative="1" as="geometry" />
        </mxCell>
        <mxCell id="dwQCpobOTHlW38qF8Rt8-9" style="shape=connector;rounded=0;orthogonalLoop=1;jettySize=auto;html=1;labelBackgroundColor=default;strokeColor=default;fontFamily=Helvetica;fontSize=11;fontColor=default;endArrow=classic;" edge="1" parent="1" source="dwQCpobOTHlW38qF8Rt8-49" target="dwQCpobOTHlW38qF8Rt8-8">
          <mxGeometry relative="1" as="geometry" />
        </mxCell>
        <mxCell id="dwQCpobOTHlW38qF8Rt8-11" style="shape=connector;rounded=0;orthogonalLoop=1;jettySize=auto;html=1;labelBackgroundColor=default;strokeColor=default;fontFamily=Helvetica;fontSize=11;fontColor=default;endArrow=classic;" edge="1" parent="1" source="dwQCpobOTHlW38qF8Rt8-45" target="dwQCpobOTHlW38qF8Rt8-10">
          <mxGeometry relative="1" as="geometry" />
        </mxCell>
        <mxCell id="dwQCpobOTHlW38qF8Rt8-13" style="shape=connector;rounded=0;orthogonalLoop=1;jettySize=auto;html=1;labelBackgroundColor=default;strokeColor=default;fontFamily=Helvetica;fontSize=11;fontColor=default;endArrow=classic;" edge="1" parent="1" source="dwQCpobOTHlW38qF8Rt8-45" target="dwQCpobOTHlW38qF8Rt8-12">
          <mxGeometry relative="1" as="geometry" />
        </mxCell>
        <mxCell id="dwQCpobOTHlW38qF8Rt8-1" value="Unity Input System Workflows" style="swimlane;fontStyle=1;align=center;verticalAlign=top;childLayout=stackLayout;horizontal=1;startSize=26;horizontalStack=0;resizeParent=1;resizeParentMax=0;resizeLast=0;collapsible=1;marginBottom=0;whiteSpace=wrap;html=1;fillColor=#dae8fc;strokeColor=#6c8ebf;" vertex="1" parent="1">
          <mxGeometry x="-204" y="1085" width="245" height="52" as="geometry" />
        </mxCell>
        <mxCell id="dwQCpobOTHlW38qF8Rt8-4" value="&lt;div&gt;Workflow 1: Directly Reading Device States&lt;/div&gt;&lt;div&gt;&lt;br&gt;&lt;/div&gt;" style="swimlane;fontStyle=1;align=center;verticalAlign=top;childLayout=stackLayout;horizontal=1;startSize=26;horizontalStack=0;resizeParent=1;resizeParentMax=0;resizeLast=0;collapsible=1;marginBottom=0;whiteSpace=wrap;html=1;fillColor=#dae8fc;strokeColor=#6c8ebf;" vertex="1" parent="1">
          <mxGeometry x="-927" y="1408" width="300" height="57" as="geometry" />
        </mxCell>
        <mxCell id="dwQCpobOTHlW38qF8Rt8-52" value="Read device events in the code." style="text;strokeColor=#b85450;fillColor=#f8cecc;align=left;verticalAlign=top;spacingLeft=4;spacingRight=4;overflow=hidden;rotatable=0;points=[[0,0.5],[1,0.5]];portConstraint=eastwest;whiteSpace=wrap;html=1;" vertex="1" parent="dwQCpobOTHlW38qF8Rt8-4">
          <mxGeometry y="26" width="300" height="31" as="geometry" />
        </mxCell>
        <mxCell id="dwQCpobOTHlW38qF8Rt8-8" value="&lt;div&gt;Workflow 2: Using Embedded Actions&lt;br&gt;&lt;/div&gt;" style="swimlane;fontStyle=1;align=center;verticalAlign=top;childLayout=stackLayout;horizontal=1;startSize=26;horizontalStack=0;resizeParent=1;resizeParentMax=0;resizeLast=0;collapsible=1;marginBottom=0;whiteSpace=wrap;html=1;fillColor=#dae8fc;strokeColor=#6c8ebf;" vertex="1" parent="1">
          <mxGeometry x="-514" y="1408" width="300" height="81" as="geometry" />
        </mxCell>
        <mxCell id="dwQCpobOTHlW38qF8Rt8-48" value="Use `public InputAction move;` actions to propogate them to the inspector.&amp;nbsp;&lt;br&gt;Set the device event in the Inspector for this action." style="text;strokeColor=#b85450;fillColor=#f8cecc;align=left;verticalAlign=top;spacingLeft=4;spacingRight=4;overflow=hidden;rotatable=0;points=[[0,0.5],[1,0.5]];portConstraint=eastwest;whiteSpace=wrap;html=1;" vertex="1" parent="dwQCpobOTHlW38qF8Rt8-8">
          <mxGeometry y="26" width="300" height="55" as="geometry" />
        </mxCell>
        <mxCell id="dwQCpobOTHlW38qF8Rt8-15" style="shape=connector;rounded=0;orthogonalLoop=1;jettySize=auto;html=1;labelBackgroundColor=default;strokeColor=default;fontFamily=Helvetica;fontSize=11;fontColor=default;endArrow=classic;" edge="1" parent="1" source="dwQCpobOTHlW38qF8Rt8-10" target="dwQCpobOTHlW38qF8Rt8-14">
          <mxGeometry relative="1" as="geometry" />
        </mxCell>
        <mxCell id="dwQCpobOTHlW38qF8Rt8-17" style="shape=connector;rounded=0;orthogonalLoop=1;jettySize=auto;html=1;labelBackgroundColor=default;strokeColor=default;fontFamily=Helvetica;fontSize=11;fontColor=default;endArrow=classic;" edge="1" parent="1" source="dwQCpobOTHlW38qF8Rt8-10" target="dwQCpobOTHlW38qF8Rt8-16">
          <mxGeometry relative="1" as="geometry" />
        </mxCell>
        <mxCell id="dwQCpobOTHlW38qF8Rt8-10" value="&lt;div&gt;&lt;div&gt;Workflow 3: Using an Actions Asset&lt;/div&gt;&lt;div&gt;&lt;br&gt;&lt;/div&gt;&lt;/div&gt;" style="swimlane;fontStyle=1;align=center;verticalAlign=top;childLayout=stackLayout;horizontal=1;startSize=26;horizontalStack=0;resizeParent=1;resizeParentMax=0;resizeLast=0;collapsible=1;marginBottom=0;whiteSpace=wrap;html=1;fillColor=#dae8fc;strokeColor=#6c8ebf;" vertex="1" parent="1">
          <mxGeometry x="-102" y="1408" width="300" height="68" as="geometry" />
        </mxCell>
        <mxCell id="dwQCpobOTHlW38qF8Rt8-44" value="Implement Control Map and Actions in central InputAction asset." style="text;strokeColor=#82b366;fillColor=#d5e8d4;align=left;verticalAlign=top;spacingLeft=4;spacingRight=4;overflow=hidden;rotatable=0;points=[[0,0.5],[1,0.5]];portConstraint=eastwest;whiteSpace=wrap;html=1;" vertex="1" parent="dwQCpobOTHlW38qF8Rt8-10">
          <mxGeometry y="26" width="300" height="42" as="geometry" />
        </mxCell>
        <mxCell id="dwQCpobOTHlW38qF8Rt8-20" style="edgeStyle=none;shape=connector;rounded=0;orthogonalLoop=1;jettySize=auto;html=1;labelBackgroundColor=default;strokeColor=default;fontFamily=Helvetica;fontSize=11;fontColor=default;endArrow=classic;" edge="1" parent="1" source="dwQCpobOTHlW38qF8Rt8-12" target="dwQCpobOTHlW38qF8Rt8-18">
          <mxGeometry relative="1" as="geometry" />
        </mxCell>
        <mxCell id="dwQCpobOTHlW38qF8Rt8-22" style="edgeStyle=none;shape=connector;rounded=0;orthogonalLoop=1;jettySize=auto;html=1;labelBackgroundColor=default;strokeColor=default;fontFamily=Helvetica;fontSize=11;fontColor=default;endArrow=classic;" edge="1" parent="1" source="dwQCpobOTHlW38qF8Rt8-12" target="dwQCpobOTHlW38qF8Rt8-21">
          <mxGeometry relative="1" as="geometry" />
        </mxCell>
        <mxCell id="dwQCpobOTHlW38qF8Rt8-24" style="edgeStyle=none;shape=connector;rounded=0;orthogonalLoop=1;jettySize=auto;html=1;labelBackgroundColor=default;strokeColor=default;fontFamily=Helvetica;fontSize=11;fontColor=default;endArrow=classic;" edge="1" parent="1" source="dwQCpobOTHlW38qF8Rt8-12" target="dwQCpobOTHlW38qF8Rt8-23">
          <mxGeometry relative="1" as="geometry" />
        </mxCell>
        <mxCell id="dwQCpobOTHlW38qF8Rt8-26" style="edgeStyle=none;shape=connector;rounded=0;orthogonalLoop=1;jettySize=auto;html=1;labelBackgroundColor=default;strokeColor=default;fontFamily=Helvetica;fontSize=11;fontColor=default;endArrow=classic;" edge="1" parent="1" source="dwQCpobOTHlW38qF8Rt8-12" target="dwQCpobOTHlW38qF8Rt8-25">
          <mxGeometry relative="1" as="geometry" />
        </mxCell>
        <mxCell id="dwQCpobOTHlW38qF8Rt8-12" value="&lt;div&gt;&lt;div&gt;&lt;div&gt;Workflow 4: Using an Actions Asset and a PlayerInput component&lt;/div&gt;&lt;div&gt;&lt;br&gt;&lt;/div&gt;&lt;/div&gt;&lt;/div&gt;" style="swimlane;fontStyle=1;align=center;verticalAlign=top;childLayout=stackLayout;horizontal=1;startSize=31;horizontalStack=0;resizeParent=1;resizeParentMax=0;resizeLast=0;collapsible=1;marginBottom=0;whiteSpace=wrap;html=1;fillColor=#dae8fc;strokeColor=#6c8ebf;" vertex="1" parent="1">
          <mxGeometry x="793" y="1408" width="406" height="85" as="geometry" />
        </mxCell>
        <mxCell id="dwQCpobOTHlW38qF8Rt8-32" value="Implement Control Map and Actions in central InputAction asset." style="text;strokeColor=#82b366;fillColor=#d5e8d4;align=left;verticalAlign=top;spacingLeft=4;spacingRight=4;overflow=hidden;rotatable=0;points=[[0,0.5],[1,0.5]];portConstraint=eastwest;whiteSpace=wrap;html=1;" vertex="1" parent="dwQCpobOTHlW38qF8Rt8-12">
          <mxGeometry y="31" width="406" height="27" as="geometry" />
        </mxCell>
        <mxCell id="dwQCpobOTHlW38qF8Rt8-33" value="Attach this InputAction asset to the GameObject." style="text;strokeColor=#d6b656;fillColor=#fff2cc;align=left;verticalAlign=top;spacingLeft=4;spacingRight=4;overflow=hidden;rotatable=0;points=[[0,0.5],[1,0.5]];portConstraint=eastwest;whiteSpace=wrap;html=1;" vertex="1" parent="dwQCpobOTHlW38qF8Rt8-12">
          <mxGeometry y="58" width="406" height="27" as="geometry" />
        </mxCell>
        <mxCell id="dwQCpobOTHlW38qF8Rt8-41" value="similar" style="edgeStyle=orthogonalEdgeStyle;shape=connector;rounded=0;orthogonalLoop=1;jettySize=auto;html=1;labelBackgroundColor=default;strokeColor=default;fontFamily=Helvetica;fontSize=11;fontColor=default;endArrow=none;curved=1;dashed=1;endFill=0;" edge="1" parent="1" source="dwQCpobOTHlW38qF8Rt8-14" target="dwQCpobOTHlW38qF8Rt8-25">
          <mxGeometry relative="1" as="geometry">
            <Array as="points">
              <mxPoint x="-62" y="1784" />
              <mxPoint x="1420" y="1784" />
            </Array>
          </mxGeometry>
        </mxCell>
        <mxCell id="dwQCpobOTHlW38qF8Rt8-14" value="&lt;div&gt;&lt;div&gt;Via Inspector Reference&lt;br&gt;&lt;/div&gt;&lt;/div&gt;" style="swimlane;fontStyle=1;align=center;verticalAlign=top;childLayout=stackLayout;horizontal=1;startSize=26;horizontalStack=0;resizeParent=1;resizeParentMax=0;resizeLast=0;collapsible=1;marginBottom=0;whiteSpace=wrap;html=1;fillColor=#dae8fc;strokeColor=#6c8ebf;" vertex="1" parent="1">
          <mxGeometry x="-166" y="1554" width="212" height="102" as="geometry" />
        </mxCell>
        <mxCell id="dwQCpobOTHlW38qF8Rt8-42" value="Need access to&amp;nbsp;InputActionAsset in the code." style="text;strokeColor=#b85450;fillColor=#f8cecc;align=left;verticalAlign=top;spacingLeft=4;spacingRight=4;overflow=hidden;rotatable=0;points=[[0,0.5],[1,0.5]];portConstraint=eastwest;whiteSpace=wrap;html=1;" vertex="1" parent="dwQCpobOTHlW38qF8Rt8-14">
          <mxGeometry y="26" width="212" height="39" as="geometry" />
        </mxCell>
        <mxCell id="dwQCpobOTHlW38qF8Rt8-43" value="Need find actions by name." style="text;strokeColor=#b85450;fillColor=#f8cecc;align=left;verticalAlign=top;spacingLeft=4;spacingRight=4;overflow=hidden;rotatable=0;points=[[0,0.5],[1,0.5]];portConstraint=eastwest;whiteSpace=wrap;html=1;" vertex="1" parent="dwQCpobOTHlW38qF8Rt8-14">
          <mxGeometry y="65" width="212" height="37" as="geometry" />
        </mxCell>
        <mxCell id="dwQCpobOTHlW38qF8Rt8-16" value="&lt;div&gt;&lt;div&gt;Via Generated C# Class&lt;br&gt;&lt;/div&gt;&lt;/div&gt;" style="swimlane;fontStyle=1;align=center;verticalAlign=top;childLayout=stackLayout;horizontal=1;startSize=26;horizontalStack=0;resizeParent=1;resizeParentMax=0;resizeLast=0;collapsible=1;marginBottom=0;whiteSpace=wrap;html=1;fillColor=#dae8fc;strokeColor=#6c8ebf;" vertex="1" parent="1">
          <mxGeometry x="88" y="1554" width="212" height="104" as="geometry" />
        </mxCell>
        <mxCell id="dwQCpobOTHlW38qF8Rt8-31" value="Get compile error if use incorrect action name" style="text;strokeColor=#82b366;fillColor=#d5e8d4;align=left;verticalAlign=top;spacingLeft=4;spacingRight=4;overflow=hidden;rotatable=0;points=[[0,0.5],[1,0.5]];portConstraint=eastwest;whiteSpace=wrap;html=1;" vertex="1" parent="dwQCpobOTHlW38qF8Rt8-16">
          <mxGeometry y="26" width="212" height="39" as="geometry" />
        </mxCell>
        <mxCell id="dwQCpobOTHlW38qF8Rt8-40" value="Code depends from Events direrctly." style="text;strokeColor=#b85450;fillColor=#f8cecc;align=left;verticalAlign=top;spacingLeft=4;spacingRight=4;overflow=hidden;rotatable=0;points=[[0,0.5],[1,0.5]];portConstraint=eastwest;whiteSpace=wrap;html=1;" vertex="1" parent="dwQCpobOTHlW38qF8Rt8-16">
          <mxGeometry y="65" width="212" height="39" as="geometry" />
        </mxCell>
        <mxCell id="dwQCpobOTHlW38qF8Rt8-18" value="Send Message behavior" style="swimlane;fontStyle=1;align=center;verticalAlign=top;childLayout=stackLayout;horizontal=1;startSize=26;horizontalStack=0;resizeParent=1;resizeParentMax=0;resizeLast=0;collapsible=1;marginBottom=0;whiteSpace=wrap;html=1;fillColor=#dae8fc;strokeColor=#6c8ebf;" vertex="1" parent="1">
          <mxGeometry x="460" y="1554" width="225" height="95" as="geometry" />
        </mxCell>
        <mxCell id="dwQCpobOTHlW38qF8Rt8-28" value="Implement callback methods in C# using same name of action." style="text;strokeColor=#b85450;fillColor=#f8cecc;align=left;verticalAlign=top;spacingLeft=4;spacingRight=4;overflow=hidden;rotatable=0;points=[[0,0.5],[1,0.5]];portConstraint=eastwest;whiteSpace=wrap;html=1;" vertex="1" parent="dwQCpobOTHlW38qF8Rt8-18">
          <mxGeometry y="26" width="225" height="42" as="geometry" />
        </mxCell>
        <mxCell id="dwQCpobOTHlW38qF8Rt8-27" value="Fast and simple to implement." style="text;strokeColor=#d6b656;fillColor=#fff2cc;align=left;verticalAlign=top;spacingLeft=4;spacingRight=4;overflow=hidden;rotatable=0;points=[[0,0.5],[1,0.5]];portConstraint=eastwest;whiteSpace=wrap;html=1;" vertex="1" parent="dwQCpobOTHlW38qF8Rt8-18">
          <mxGeometry y="68" width="225" height="27" as="geometry" />
        </mxCell>
        <mxCell id="dwQCpobOTHlW38qF8Rt8-21" value="Broadcast Message behavior" style="swimlane;fontStyle=1;align=center;verticalAlign=top;childLayout=stackLayout;horizontal=1;startSize=26;horizontalStack=0;resizeParent=1;resizeParentMax=0;resizeLast=0;collapsible=1;marginBottom=0;whiteSpace=wrap;html=1;fillColor=#dae8fc;strokeColor=#6c8ebf;" vertex="1" parent="1">
          <mxGeometry x="741" y="1554" width="225" height="80" as="geometry" />
        </mxCell>
        <mxCell id="dwQCpobOTHlW38qF8Rt8-29" value="Same as &quot;Send Message behavior&quot;." style="text;strokeColor=#b85450;fillColor=#f8cecc;align=left;verticalAlign=top;spacingLeft=4;spacingRight=4;overflow=hidden;rotatable=0;points=[[0,0.5],[1,0.5]];portConstraint=eastwest;whiteSpace=wrap;html=1;" vertex="1" parent="dwQCpobOTHlW38qF8Rt8-21">
          <mxGeometry y="26" width="225" height="27" as="geometry" />
        </mxCell>
        <mxCell id="dwQCpobOTHlW38qF8Rt8-30" value="Broadcast messages to child objects." style="text;strokeColor=#d6b656;fillColor=#fff2cc;align=left;verticalAlign=top;spacingLeft=4;spacingRight=4;overflow=hidden;rotatable=0;points=[[0,0.5],[1,0.5]];portConstraint=eastwest;whiteSpace=wrap;html=1;" vertex="1" parent="dwQCpobOTHlW38qF8Rt8-21">
          <mxGeometry y="53" width="225" height="27" as="geometry" />
        </mxCell>
        <mxCell id="dwQCpobOTHlW38qF8Rt8-23" value="&lt;div&gt;Invoke Unity Event behavior&lt;br&gt;&lt;/div&gt;" style="swimlane;fontStyle=1;align=center;verticalAlign=top;childLayout=stackLayout;horizontal=1;startSize=26;horizontalStack=0;resizeParent=1;resizeParentMax=0;resizeLast=0;collapsible=1;marginBottom=0;whiteSpace=wrap;html=1;fillColor=#dae8fc;strokeColor=#6c8ebf;" vertex="1" parent="1">
          <mxGeometry x="1022" y="1554" width="225" height="111" as="geometry" />
        </mxCell>
        <mxCell id="dwQCpobOTHlW38qF8Rt8-39" value="Need connect Input Event and GameObject.method() in Inspector.&lt;br&gt;&lt;br&gt;Code does not depent from Events direrctly." style="text;strokeColor=#82b366;fillColor=#d5e8d4;align=left;verticalAlign=top;spacingLeft=4;spacingRight=4;overflow=hidden;rotatable=0;points=[[0,0.5],[1,0.5]];portConstraint=eastwest;whiteSpace=wrap;html=1;" vertex="1" parent="dwQCpobOTHlW38qF8Rt8-23">
          <mxGeometry y="26" width="225" height="85" as="geometry" />
        </mxCell>
        <mxCell id="dwQCpobOTHlW38qF8Rt8-25" value="&lt;div&gt;Invoke C# Event behavior&lt;br&gt;&lt;/div&gt;" style="swimlane;fontStyle=1;align=center;verticalAlign=top;childLayout=stackLayout;horizontal=1;startSize=26;horizontalStack=0;resizeParent=1;resizeParentMax=0;resizeLast=0;collapsible=1;marginBottom=0;whiteSpace=wrap;html=1;fillColor=#dae8fc;strokeColor=#6c8ebf;" vertex="1" parent="1">
          <mxGeometry x="1303" y="1554" width="240" height="100" as="geometry" />
        </mxCell>
        <mxCell id="dwQCpobOTHlW38qF8Rt8-37" value="Need direct access to PlayerInput component in script." style="text;strokeColor=#b85450;fillColor=#f8cecc;align=left;verticalAlign=top;spacingLeft=4;spacingRight=4;overflow=hidden;rotatable=0;points=[[0,0.5],[1,0.5]];portConstraint=eastwest;whiteSpace=wrap;html=1;" vertex="1" parent="dwQCpobOTHlW38qF8Rt8-25">
          <mxGeometry y="26" width="240" height="37" as="geometry" />
        </mxCell>
        <mxCell id="dwQCpobOTHlW38qF8Rt8-38" value="Need find actions by name." style="text;strokeColor=#b85450;fillColor=#f8cecc;align=left;verticalAlign=top;spacingLeft=4;spacingRight=4;overflow=hidden;rotatable=0;points=[[0,0.5],[1,0.5]];portConstraint=eastwest;whiteSpace=wrap;html=1;" vertex="1" parent="dwQCpobOTHlW38qF8Rt8-25">
          <mxGeometry y="63" width="240" height="37" as="geometry" />
        </mxCell>
        <mxCell id="dwQCpobOTHlW38qF8Rt8-46" value="" style="shape=connector;rounded=0;orthogonalLoop=1;jettySize=auto;html=1;labelBackgroundColor=default;strokeColor=default;fontFamily=Helvetica;fontSize=11;fontColor=default;endArrow=classic;" edge="1" parent="1" source="dwQCpobOTHlW38qF8Rt8-1" target="dwQCpobOTHlW38qF8Rt8-45">
          <mxGeometry relative="1" as="geometry">
            <mxPoint x="-67" y="1137" as="sourcePoint" />
            <mxPoint x="28" y="1304" as="targetPoint" />
          </mxGeometry>
        </mxCell>
        <mxCell id="dwQCpobOTHlW38qF8Rt8-47" value="" style="shape=connector;rounded=0;orthogonalLoop=1;jettySize=auto;html=1;labelBackgroundColor=default;strokeColor=default;fontFamily=Helvetica;fontSize=11;fontColor=default;endArrow=classic;" edge="1" parent="1" source="dwQCpobOTHlW38qF8Rt8-1" target="dwQCpobOTHlW38qF8Rt8-45">
          <mxGeometry relative="1" as="geometry">
            <mxPoint x="38" y="1137" as="sourcePoint" />
            <mxPoint x="806" y="1304" as="targetPoint" />
          </mxGeometry>
        </mxCell>
        <mxCell id="dwQCpobOTHlW38qF8Rt8-45" value="Implement Control Map and Actions in central InputAction asset." style="text;strokeColor=#82b366;fillColor=#d5e8d4;align=center;verticalAlign=top;spacingLeft=4;spacingRight=4;overflow=hidden;rotatable=0;points=[[0,0.5],[1,0.5]];portConstraint=eastwest;whiteSpace=wrap;html=1;" vertex="1" parent="1">
          <mxGeometry x="340" y="1189" width="213" height="46" as="geometry" />
        </mxCell>
        <mxCell id="dwQCpobOTHlW38qF8Rt8-50" value="" style="rounded=0;orthogonalLoop=1;jettySize=auto;html=1;" edge="1" parent="1" source="dwQCpobOTHlW38qF8Rt8-1" target="dwQCpobOTHlW38qF8Rt8-49">
          <mxGeometry relative="1" as="geometry">
            <mxPoint x="-149" y="1137" as="sourcePoint" />
            <mxPoint x="-580" y="1304" as="targetPoint" />
          </mxGeometry>
        </mxCell>
        <mxCell id="dwQCpobOTHlW38qF8Rt8-51" value="" style="shape=connector;rounded=0;orthogonalLoop=1;jettySize=auto;html=1;labelBackgroundColor=default;strokeColor=default;fontFamily=Helvetica;fontSize=11;fontColor=default;endArrow=classic;" edge="1" parent="1" source="dwQCpobOTHlW38qF8Rt8-1" target="dwQCpobOTHlW38qF8Rt8-49">
          <mxGeometry relative="1" as="geometry">
            <mxPoint x="-107" y="1137" as="sourcePoint" />
            <mxPoint x="-269" y="1304" as="targetPoint" />
          </mxGeometry>
        </mxCell>
        <mxCell id="dwQCpobOTHlW38qF8Rt8-49" value="Link callback and device event separatly for every action" style="text;strokeColor=#b85450;fillColor=#f8cecc;align=center;verticalAlign=top;spacingLeft=4;spacingRight=4;overflow=hidden;rotatable=0;points=[[0,0.5],[1,0.5]];portConstraint=eastwest;whiteSpace=wrap;html=1;" vertex="1" parent="1">
          <mxGeometry x="-601" y="1189" width="213" height="46" as="geometry" />
        </mxCell>
      </root>
    </mxGraphModel>
  </diagram>
</mxfile>
